<svg width="651" height="500" viewBox="0 0 651 500" fill="none" xmlns="http://www.w3.org/2000/svg" style="" class="">
<g style="mix-blend-mode:overlay">
<path d="M-8.76671 163.762L-8.56626 178.052C-7.115 281.512 104.783 345.493 194.681 294.265L207.6 286.903C292.099 238.752 397.188 299.351 397.839 396.604L398.067 430.615C398.538 500.981 467.957 550.098 534.469 527.127V527.127" stroke="white" stroke-width="0.653416" class="svg-elem-1 bYjZtThA_0"></path>
<path d="M-13.5096 171.977L-13.3092 186.267C-11.8579 289.727 100.04 353.707 189.938 302.48L202.858 295.118C287.356 246.967 392.445 307.566 393.096 404.819L393.324 438.83C393.796 509.196 463.214 558.313 529.726 535.342V535.342" stroke="white" stroke-width="0.653416" class="svg-elem-2 bYjZtThA_1"></path>
<path d="M-18.2518 180.192L-18.0514 194.482C-16.6001 297.941 95.2976 361.922 185.196 310.694L198.115 303.332C282.614 255.181 387.703 315.781 388.354 413.033L388.582 447.044C389.053 517.41 458.472 566.527 524.984 543.556V543.556" stroke="white" stroke-width="0.653416" class="svg-elem-3 bYjZtThA_2"></path>
<path d="M-22.9952 188.406L-22.7948 202.696C-21.3435 306.156 90.5541 370.137 180.453 318.909L193.372 311.547C277.871 263.396 382.959 323.995 383.611 421.248L383.839 455.259C384.31 525.625 453.728 574.742 520.241 551.771V551.771" stroke="white" stroke-width="0.653416" class="svg-elem-4 bYjZtThA_3"></path>
<path d="M-27.7375 196.621L-27.5371 210.911C-26.0858 314.371 85.8118 378.351 175.71 327.124L188.63 319.762C273.128 271.611 378.217 332.21 378.868 429.463L379.096 463.474C379.568 533.84 448.986 582.957 515.498 559.986V559.986" stroke="white" stroke-width="0.653416" class="svg-elem-5 bYjZtThA_4"></path>
<path d="M-32.4814 204.836L-32.281 219.126C-30.8297 322.586 81.0679 386.566 170.966 335.338L183.886 327.976C268.384 279.826 373.473 340.425 374.125 437.678L374.352 471.688C374.824 542.055 444.242 591.172 510.755 568.2V568.2" stroke="white" stroke-width="0.653416" class="svg-elem-6 bYjZtThA_5"></path>
<path d="M-37.2235 213.052L-37.023 227.342C-35.5718 330.802 76.3259 394.782 166.224 343.555L179.144 336.193C263.642 288.042 368.731 348.641 369.382 445.894L369.61 479.905C370.082 550.271 439.5 599.388 506.013 576.417V576.417" stroke="white" stroke-width="0.653416" class="svg-elem-7 bYjZtThA_6"></path>
<path d="M-41.9662 221.265L-41.7657 235.555C-40.3145 339.015 71.5832 402.996 161.482 351.768L174.401 344.406C258.9 296.255 363.988 356.854 364.64 454.107L364.868 488.118C365.339 558.484 434.757 607.601 501.27 584.63V584.63" stroke="white" stroke-width="0.653416" class="svg-elem-8 bYjZtThA_7"></path>
<path d="M-46.7095 229.482L-46.509 243.771C-45.0578 347.231 66.8399 411.212 156.738 359.984L169.658 352.622C254.156 304.471 359.245 365.07 359.896 462.323L360.124 496.334C360.596 566.7 430.014 615.817 496.527 592.846V592.846" stroke="white" stroke-width="0.653416" class="svg-elem-9 bYjZtThA_8"></path>
<path d="M-51.4518 237.696L-51.2513 251.986C-49.8001 355.446 62.0976 419.426 151.996 368.199L164.915 360.837C249.414 312.686 354.503 373.285 355.154 470.538L355.382 504.549C355.853 574.915 425.272 624.032 491.784 601.061V601.061" stroke="white" stroke-width="0.653416" class="svg-elem-10 bYjZtThA_9"></path>
<path d="M-56.1952 245.911L-55.9947 260.201C-54.5435 363.66 57.3542 427.641 147.253 376.413L160.172 369.051C244.671 320.901 349.759 381.5 350.411 478.753L350.639 512.763C351.11 583.13 420.528 632.247 487.041 609.275V609.275" stroke="white" stroke-width="0.653416" class="svg-elem-11 bYjZtThA_10"></path>
<path d="M-60.9376 254.126L-60.7372 268.415C-59.2859 371.875 52.6118 435.856 142.51 384.628L155.43 377.266C239.928 329.115 345.017 389.714 345.668 486.967L345.896 520.978C346.368 591.344 415.786 640.461 482.298 617.49V617.49" stroke="white" stroke-width="0.653416" class="svg-elem-12 bYjZtThA_11"></path>
<path d="M-65.68 262.34L-65.4796 276.63C-64.0283 380.09 47.8693 444.071 137.768 392.843L150.687 385.481C235.186 337.33 340.274 397.929 340.926 495.182L341.154 529.193C341.625 599.559 411.043 648.676 477.556 625.705V625.705" stroke="white" stroke-width="0.653416" class="svg-elem-13 bYjZtThA_12"></path>
<path d="M-70.423 270.555L-70.2225 284.845C-68.7713 388.305 43.1264 452.285 133.025 401.057L145.944 393.695C230.443 345.545 335.531 406.144 336.183 503.397L336.411 537.407C336.882 607.774 406.3 656.891 472.813 633.919V633.919" stroke="white" stroke-width="0.653416" class="svg-elem-14 bYjZtThA_13"></path>
<path d="M-75.166 278.77L-74.9656 293.06C-73.5143 396.519 38.3834 460.5 128.282 409.272L141.201 401.91C225.7 353.759 330.788 414.359 331.44 511.611L331.668 545.622C332.139 615.988 401.557 665.105 468.07 642.134V642.134" stroke="white" stroke-width="0.653416" class="svg-elem-15 bYjZtThA_14"></path>
<path d="M-79.7966 286.79L-79.5962 301.08C-78.1449 404.54 33.7528 468.521 123.651 417.293L136.571 409.931C221.069 361.78 326.158 422.379 326.809 519.632L327.037 553.643C327.509 624.009 396.927 673.126 463.439 650.155V650.155" stroke="white" stroke-width="0.653416" class="svg-elem-16 bYjZtThA_15"></path>
<path d="M-84.4271 294.811L-84.2267 309.101C-82.7754 412.56 29.1223 476.541 119.021 425.313L131.94 417.951C216.439 369.8 321.527 430.4 322.179 527.652L322.407 561.663C322.878 632.029 392.296 681.147 458.809 658.175V658.175" stroke="white" stroke-width="0.653416" class="svg-elem-17 bYjZtThA_16"></path>
<path d="M-89.0577 302.831L-88.8573 317.121C-87.406 420.581 24.4916 484.562 114.39 433.334L127.309 425.972C211.808 377.821 316.897 438.42 317.548 535.673L317.776 569.684C318.247 640.05 387.666 689.167 454.178 666.196V666.196" stroke="white" stroke-width="0.653416" class="svg-elem-18 bYjZtThA_17"></path>
<path d="M-93.6882 310.852L-93.4878 325.142C-92.0365 428.601 19.8612 492.582 109.76 441.354L122.679 433.992C207.178 385.842 312.266 446.441 312.918 543.693L313.146 577.704C313.617 648.07 383.035 697.188 449.548 674.216V674.216" stroke="white" stroke-width="0.653416" class="svg-elem-19 bYjZtThA_18"></path>
<path d="M-98.3188 318.871L-98.1184 333.161C-96.6671 436.62 15.2305 500.601 105.129 449.373L118.048 442.011C202.547 393.861 307.636 454.46 308.287 551.713L308.515 585.723C308.986 656.089 378.405 705.207 444.917 682.235V682.235" stroke="white" stroke-width="0.653416" class="svg-elem-20 bYjZtThA_19"></path>
<path d="M-102.949 326.892L-102.749 341.182C-101.298 444.641 10.6 508.622 100.498 457.394L113.418 450.032C197.916 401.881 303.005 462.481 303.657 559.733L303.884 593.744C304.356 664.11 373.774 713.227 440.287 690.256V690.256" stroke="white" stroke-width="0.653416" class="svg-elem-21 bYjZtThA_20"></path>
<path d="M-107.58 334.912L-107.379 349.202C-105.928 452.662 5.96943 516.642 95.8678 465.415L108.787 458.053C193.286 409.902 298.374 470.501 299.026 567.754L299.254 601.765C299.725 672.131 369.143 721.248 435.656 698.277V698.277" stroke="white" stroke-width="0.653416" class="svg-elem-22 bYjZtThA_21"></path>
<path d="M-112.211 342.933L-112.01 357.223C-110.559 460.682 1.33881 524.663 91.2372 473.435L104.157 466.073C188.655 417.922 293.744 478.522 294.395 575.774L294.623 609.785C295.095 680.151 364.513 729.268 431.025 706.297V706.297" stroke="white" stroke-width="0.653416" class="svg-elem-23 bYjZtThA_22"></path>
<path d="M-116.841 350.953L-116.641 365.243C-115.189 468.703 -3.29168 532.684 86.6067 481.456L99.5261 474.094C184.025 425.943 289.113 486.542 289.765 583.795L289.993 617.806C290.464 688.172 359.882 737.289 426.395 714.318V714.318" stroke="white" stroke-width="0.653416" class="svg-elem-24 bYjZtThA_23"></path>
<path d="M-121.472 358.974L-121.271 373.264C-119.82 476.723 -7.92229 540.704 81.9761 489.476L94.8955 482.114C179.394 433.963 284.483 494.563 285.134 591.815L285.362 625.826C285.834 696.192 355.252 745.309 421.764 722.338V722.338" stroke="white" stroke-width="0.653416" class="svg-elem-25 bYjZtThA_24"></path>
<path d="M-126.102 366.994L-125.902 381.284C-124.45 484.744 -12.5528 548.725 77.3456 497.497L90.265 490.135C174.764 441.984 279.852 502.583 280.504 599.836L280.732 633.847C281.203 704.213 350.621 753.33 417.134 730.359V730.359" stroke="white" stroke-width="0.653416" class="svg-elem-26 bYjZtThA_25"></path>
<path d="M-130.733 375.015L-130.532 389.305C-129.081 492.764 -17.1834 556.745 72.715 505.517L85.6344 498.155C170.133 450.004 275.222 510.604 275.873 607.856L276.101 641.867C276.572 712.233 345.991 761.35 412.503 738.379V738.379" stroke="white" stroke-width="0.653416" class="svg-elem-27 bYjZtThA_26"></path>
<path d="M-135.363 383.034L-135.163 397.324C-133.712 500.783 -21.8139 564.764 68.0845 513.536L81.0039 506.174C165.502 458.023 270.591 518.623 271.243 615.875L271.471 649.886C271.942 720.252 341.36 769.369 407.873 746.398V746.398" stroke="white" stroke-width="0.653416" class="svg-elem-28 bYjZtThA_27"></path>
<path d="M-139.994 391.055L-139.793 405.344C-138.342 508.804 -26.4445 572.785 63.4539 521.557L76.3733 514.195C160.872 466.044 265.961 526.643 266.612 623.896L266.84 657.907C267.311 728.273 336.729 777.39 403.242 754.419V754.419" stroke="white" stroke-width="0.653416" class="svg-elem-29 bYjZtThA_28"></path>
</g>
<style data-made-with="vivus-instant">.bYjZtThA_0{stroke-dasharray:806 808;stroke-dashoffset:807;}.start .bYjZtThA_0{animation:bYjZtThA_draw_0 7200ms linear 0ms infinite,bYjZtThA_fade 7200ms linear 0ms infinite;}.bYjZtThA_1{stroke-dasharray:806 808;stroke-dashoffset:807;}.start .bYjZtThA_1{animation:bYjZtThA_draw_1 7200ms linear 0ms infinite,bYjZtThA_fade 7200ms linear 0ms infinite;}.bYjZtThA_2{stroke-dasharray:806 808;stroke-dashoffset:807;}.start .bYjZtThA_2{animation:bYjZtThA_draw_2 7200ms linear 0ms infinite,bYjZtThA_fade 7200ms linear 0ms infinite;}.bYjZtThA_3{stroke-dasharray:806 808;stroke-dashoffset:807;}.start .bYjZtThA_3{animation:bYjZtThA_draw_3 7200ms linear 0ms infinite,bYjZtThA_fade 7200ms linear 0ms infinite;}.bYjZtThA_4{stroke-dasharray:806 808;stroke-dashoffset:807;}.start .bYjZtThA_4{animation:bYjZtThA_draw_4 7200ms linear 0ms infinite,bYjZtThA_fade 7200ms linear 0ms infinite;}.bYjZtThA_5{stroke-dasharray:806 808;stroke-dashoffset:807;}.start .bYjZtThA_5{animation:bYjZtThA_draw_5 7200ms linear 0ms infinite,bYjZtThA_fade 7200ms linear 0ms infinite;}.bYjZtThA_6{stroke-dasharray:806 808;stroke-dashoffset:807;}.start .bYjZtThA_6{animation:bYjZtThA_draw_6 7200ms linear 0ms infinite,bYjZtThA_fade 7200ms linear 0ms infinite;}.bYjZtThA_7{stroke-dasharray:806 808;stroke-dashoffset:807;}.start .bYjZtThA_7{animation:bYjZtThA_draw_7 7200ms linear 0ms infinite,bYjZtThA_fade 7200ms linear 0ms infinite;}.bYjZtThA_8{stroke-dasharray:806 808;stroke-dashoffset:807;}.start .bYjZtThA_8{animation:bYjZtThA_draw_8 7200ms linear 0ms infinite,bYjZtThA_fade 7200ms linear 0ms infinite;}.bYjZtThA_9{stroke-dasharray:806 808;stroke-dashoffset:807;}.start .bYjZtThA_9{animation:bYjZtThA_draw_9 7200ms linear 0ms infinite,bYjZtThA_fade 7200ms linear 0ms infinite;}.bYjZtThA_10{stroke-dasharray:806 808;stroke-dashoffset:807;}.start .bYjZtThA_10{animation:bYjZtThA_draw_10 7200ms linear 0ms infinite,bYjZtThA_fade 7200ms linear 0ms infinite;}.bYjZtThA_11{stroke-dasharray:806 808;stroke-dashoffset:807;}.start .bYjZtThA_11{animation:bYjZtThA_draw_11 7200ms linear 0ms infinite,bYjZtThA_fade 7200ms linear 0ms infinite;}.bYjZtThA_12{stroke-dasharray:806 808;stroke-dashoffset:807;}.start .bYjZtThA_12{animation:bYjZtThA_draw_12 7200ms linear 0ms infinite,bYjZtThA_fade 7200ms linear 0ms infinite;}.bYjZtThA_13{stroke-dasharray:806 808;stroke-dashoffset:807;}.start .bYjZtThA_13{animation:bYjZtThA_draw_13 7200ms linear 0ms infinite,bYjZtThA_fade 7200ms linear 0ms infinite;}.bYjZtThA_14{stroke-dasharray:806 808;stroke-dashoffset:807;}.start .bYjZtThA_14{animation:bYjZtThA_draw_14 7200ms linear 0ms infinite,bYjZtThA_fade 7200ms linear 0ms infinite;}.bYjZtThA_15{stroke-dasharray:806 808;stroke-dashoffset:807;}.start .bYjZtThA_15{animation:bYjZtThA_draw_15 7200ms linear 0ms infinite,bYjZtThA_fade 7200ms linear 0ms infinite;}.bYjZtThA_16{stroke-dasharray:806 808;stroke-dashoffset:807;}.start .bYjZtThA_16{animation:bYjZtThA_draw_16 7200ms linear 0ms infinite,bYjZtThA_fade 7200ms linear 0ms infinite;}.bYjZtThA_17{stroke-dasharray:806 808;stroke-dashoffset:807;}.start .bYjZtThA_17{animation:bYjZtThA_draw_17 7200ms linear 0ms infinite,bYjZtThA_fade 7200ms linear 0ms infinite;}.bYjZtThA_18{stroke-dasharray:806 808;stroke-dashoffset:807;}.start .bYjZtThA_18{animation:bYjZtThA_draw_18 7200ms linear 0ms infinite,bYjZtThA_fade 7200ms linear 0ms infinite;}.bYjZtThA_19{stroke-dasharray:806 808;stroke-dashoffset:807;}.start .bYjZtThA_19{animation:bYjZtThA_draw_19 7200ms linear 0ms infinite,bYjZtThA_fade 7200ms linear 0ms infinite;}.bYjZtThA_20{stroke-dasharray:806 808;stroke-dashoffset:807;}.start .bYjZtThA_20{animation:bYjZtThA_draw_20 7200ms linear 0ms infinite,bYjZtThA_fade 7200ms linear 0ms infinite;}.bYjZtThA_21{stroke-dasharray:806 808;stroke-dashoffset:807;}.start .bYjZtThA_21{animation:bYjZtThA_draw_21 7200ms linear 0ms infinite,bYjZtThA_fade 7200ms linear 0ms infinite;}.bYjZtThA_22{stroke-dasharray:806 808;stroke-dashoffset:807;}.start .bYjZtThA_22{animation:bYjZtThA_draw_22 7200ms linear 0ms infinite,bYjZtThA_fade 7200ms linear 0ms infinite;}.bYjZtThA_23{stroke-dasharray:806 808;stroke-dashoffset:807;}.start .bYjZtThA_23{animation:bYjZtThA_draw_23 7200ms linear 0ms infinite,bYjZtThA_fade 7200ms linear 0ms infinite;}.bYjZtThA_24{stroke-dasharray:806 808;stroke-dashoffset:807;}.start .bYjZtThA_24{animation:bYjZtThA_draw_24 7200ms linear 0ms infinite,bYjZtThA_fade 7200ms linear 0ms infinite;}.bYjZtThA_25{stroke-dasharray:806 808;stroke-dashoffset:807;}.start .bYjZtThA_25{animation:bYjZtThA_draw_25 7200ms linear 0ms infinite,bYjZtThA_fade 7200ms linear 0ms infinite;}.bYjZtThA_26{stroke-dasharray:806 808;stroke-dashoffset:807;}.start .bYjZtThA_26{animation:bYjZtThA_draw_26 7200ms linear 0ms infinite,bYjZtThA_fade 7200ms linear 0ms infinite;}.bYjZtThA_27{stroke-dasharray:806 808;stroke-dashoffset:807;}.start .bYjZtThA_27{animation:bYjZtThA_draw_27 7200ms linear 0ms infinite,bYjZtThA_fade 7200ms linear 0ms infinite;}.bYjZtThA_28{stroke-dasharray:806 808;stroke-dashoffset:807;}.start .bYjZtThA_28{animation:bYjZtThA_draw_28 7200ms linear 0ms infinite,bYjZtThA_fade 7200ms linear 0ms infinite;}@keyframes bYjZtThA_draw{100%{stroke-dashoffset:0;}}@keyframes bYjZtThA_fade{0%{stroke-opacity:1;}94.44444444444444%{stroke-opacity:1;}100%{stroke-opacity:0;}}@keyframes bYjZtThA_draw_0{11.11111111111111%{stroke-dashoffset: 807}52.77777777777778%{ stroke-dashoffset: 0;}100%{ stroke-dashoffset: 0;}}@keyframes bYjZtThA_draw_1{11.11111111111111%{stroke-dashoffset: 807}52.77777777777778%{ stroke-dashoffset: 0;}100%{ stroke-dashoffset: 0;}}@keyframes bYjZtThA_draw_2{11.11111111111111%{stroke-dashoffset: 807}52.77777777777778%{ stroke-dashoffset: 0;}100%{ stroke-dashoffset: 0;}}@keyframes bYjZtThA_draw_3{11.11111111111111%{stroke-dashoffset: 807}52.77777777777778%{ stroke-dashoffset: 0;}100%{ stroke-dashoffset: 0;}}@keyframes bYjZtThA_draw_4{11.11111111111111%{stroke-dashoffset: 807}52.77777777777778%{ stroke-dashoffset: 0;}100%{ stroke-dashoffset: 0;}}@keyframes bYjZtThA_draw_5{11.11111111111111%{stroke-dashoffset: 807}52.77777777777778%{ stroke-dashoffset: 0;}100%{ stroke-dashoffset: 0;}}@keyframes bYjZtThA_draw_6{11.11111111111111%{stroke-dashoffset: 807}52.77777777777778%{ stroke-dashoffset: 0;}100%{ stroke-dashoffset: 0;}}@keyframes bYjZtThA_draw_7{11.11111111111111%{stroke-dashoffset: 807}52.77777777777778%{ stroke-dashoffset: 0;}100%{ stroke-dashoffset: 0;}}@keyframes bYjZtThA_draw_8{11.11111111111111%{stroke-dashoffset: 807}52.77777777777778%{ stroke-dashoffset: 0;}100%{ stroke-dashoffset: 0;}}@keyframes bYjZtThA_draw_9{11.11111111111111%{stroke-dashoffset: 807}52.77777777777778%{ stroke-dashoffset: 0;}100%{ stroke-dashoffset: 0;}}@keyframes bYjZtThA_draw_10{11.11111111111111%{stroke-dashoffset: 807}52.77777777777778%{ stroke-dashoffset: 0;}100%{ stroke-dashoffset: 0;}}@keyframes bYjZtThA_draw_11{11.11111111111111%{stroke-dashoffset: 807}52.77777777777778%{ stroke-dashoffset: 0;}100%{ stroke-dashoffset: 0;}}@keyframes bYjZtThA_draw_12{11.11111111111111%{stroke-dashoffset: 807}52.77777777777778%{ stroke-dashoffset: 0;}100%{ stroke-dashoffset: 0;}}@keyframes bYjZtThA_draw_13{11.11111111111111%{stroke-dashoffset: 807}52.77777777777778%{ stroke-dashoffset: 0;}100%{ stroke-dashoffset: 0;}}@keyframes bYjZtThA_draw_14{11.11111111111111%{stroke-dashoffset: 807}52.77777777777778%{ stroke-dashoffset: 0;}100%{ stroke-dashoffset: 0;}}@keyframes bYjZtThA_draw_15{11.11111111111111%{stroke-dashoffset: 807}52.77777777777778%{ stroke-dashoffset: 0;}100%{ stroke-dashoffset: 0;}}@keyframes bYjZtThA_draw_16{11.11111111111111%{stroke-dashoffset: 807}52.77777777777778%{ stroke-dashoffset: 0;}100%{ stroke-dashoffset: 0;}}@keyframes bYjZtThA_draw_17{11.11111111111111%{stroke-dashoffset: 807}52.77777777777778%{ stroke-dashoffset: 0;}100%{ stroke-dashoffset: 0;}}@keyframes bYjZtThA_draw_18{11.11111111111111%{stroke-dashoffset: 807}52.77777777777778%{ stroke-dashoffset: 0;}100%{ stroke-dashoffset: 0;}}@keyframes bYjZtThA_draw_19{11.11111111111111%{stroke-dashoffset: 807}52.77777777777778%{ stroke-dashoffset: 0;}100%{ stroke-dashoffset: 0;}}@keyframes bYjZtThA_draw_20{11.11111111111111%{stroke-dashoffset: 807}52.77777777777778%{ stroke-dashoffset: 0;}100%{ stroke-dashoffset: 0;}}@keyframes bYjZtThA_draw_21{11.11111111111111%{stroke-dashoffset: 807}52.77777777777778%{ stroke-dashoffset: 0;}100%{ stroke-dashoffset: 0;}}@keyframes bYjZtThA_draw_22{11.11111111111111%{stroke-dashoffset: 807}52.77777777777778%{ stroke-dashoffset: 0;}100%{ stroke-dashoffset: 0;}}@keyframes bYjZtThA_draw_23{11.11111111111111%{stroke-dashoffset: 807}52.77777777777778%{ stroke-dashoffset: 0;}100%{ stroke-dashoffset: 0;}}@keyframes bYjZtThA_draw_24{11.11111111111111%{stroke-dashoffset: 807}52.77777777777778%{ stroke-dashoffset: 0;}100%{ stroke-dashoffset: 0;}}@keyframes bYjZtThA_draw_25{11.11111111111111%{stroke-dashoffset: 807}52.77777777777778%{ stroke-dashoffset: 0;}100%{ stroke-dashoffset: 0;}}@keyframes bYjZtThA_draw_26{11.11111111111111%{stroke-dashoffset: 807}52.77777777777778%{ stroke-dashoffset: 0;}100%{ stroke-dashoffset: 0;}}@keyframes bYjZtThA_draw_27{11.11111111111111%{stroke-dashoffset: 807}52.77777777777778%{ stroke-dashoffset: 0;}100%{ stroke-dashoffset: 0;}}@keyframes bYjZtThA_draw_28{11.11111111111111%{stroke-dashoffset: 807}52.77777777777778%{ stroke-dashoffset: 0;}100%{ stroke-dashoffset: 0;}}</style></svg>
