<svg width="535" height="337" viewBox="0 0 535 337" fill="none" xmlns="http://www.w3.org/2000/svg">
<path d="M-8.76671 0.762289L-8.56626 15.0521C-7.115 118.512 104.783 182.493 194.681 131.265L207.6 123.903C292.099 75.7519 397.188 136.351 397.839 233.604L398.067 267.615C398.538 337.981 467.957 387.098 534.469 364.127V364.127" stroke="white" stroke-width="0.653416"/>
<path d="M-13.5096 8.97713L-13.3092 23.267C-11.8579 126.727 100.04 190.707 189.938 139.48L202.858 132.118C287.356 83.9668 392.445 144.566 393.096 241.819L393.324 275.83C393.796 346.196 463.214 395.313 529.726 372.342V372.342" stroke="white" stroke-width="0.653416"/>
<path d="M-18.2518 17.1917L-18.0514 31.4816C-16.6001 134.941 95.2976 198.922 185.196 147.694L198.115 140.332C282.614 92.1814 387.703 152.781 388.354 250.033L388.582 284.044C389.053 354.41 458.472 403.527 524.984 380.556V380.556" stroke="white" stroke-width="0.653416"/>
<path d="M-22.9952 25.4063L-22.7948 39.6962C-21.3435 143.156 90.5541 207.137 180.453 155.909L193.372 148.547C277.871 100.396 382.959 160.995 383.611 258.248L383.839 292.259C384.31 362.625 453.728 411.742 520.241 388.771V388.771" stroke="white" stroke-width="0.653416"/>
<path d="M-27.7375 33.6212L-27.5371 47.911C-26.0858 151.371 85.8118 215.351 175.71 164.124L188.63 156.762C273.128 108.611 378.217 169.21 378.868 266.463L379.096 300.474C379.568 370.84 448.986 419.957 515.498 396.986V396.986" stroke="white" stroke-width="0.653416"/>
<path d="M-32.4814 41.836L-32.281 56.1259C-30.8297 159.586 81.0679 223.566 170.966 172.338L183.886 164.976C268.384 116.826 373.473 177.425 374.125 274.678L374.352 308.688C374.824 379.055 444.242 428.172 510.755 405.2V405.2" stroke="white" stroke-width="0.653416"/>
<path d="M-37.2235 50.0521L-37.023 64.3419C-35.5718 167.802 76.3259 231.782 166.224 180.555L179.144 173.193C263.642 125.042 368.731 185.641 369.382 282.894L369.61 316.905C370.082 387.271 439.5 436.388 506.013 413.417V413.417" stroke="white" stroke-width="0.653416"/>
<path d="M-41.9662 58.2652L-41.7657 72.5551C-40.3145 176.015 71.5832 239.996 161.482 188.768L174.401 181.406C258.9 133.255 363.988 193.854 364.64 291.107L364.868 325.118C365.339 395.484 434.757 444.601 501.27 421.63V421.63" stroke="white" stroke-width="0.653416"/>
<path d="M-46.7095 66.4815L-46.509 80.7714C-45.0578 184.231 66.8399 248.212 156.738 196.984L169.658 189.622C254.156 141.471 359.245 202.07 359.896 299.323L360.124 333.334C360.596 403.7 430.014 452.817 496.527 429.846V429.846" stroke="white" stroke-width="0.653416"/>
<path d="M-51.4518 74.6961L-51.2513 88.986C-49.8001 192.446 62.0976 256.426 151.996 205.199L164.915 197.837C249.414 149.686 354.503 210.285 355.154 307.538L355.382 341.549C355.853 411.915 425.272 461.032 491.784 438.061V438.061" stroke="white" stroke-width="0.653416"/>
<path d="M-56.1952 82.911L-55.9947 97.2008C-54.5435 200.66 57.3542 264.641 147.253 213.413L160.172 206.051C244.671 157.901 349.759 218.5 350.411 315.753L350.639 349.763C351.11 420.13 420.528 469.247 487.041 446.275V446.275" stroke="white" stroke-width="0.653416"/>
<path d="M-60.9376 91.1256L-60.7372 105.415C-59.2859 208.875 52.6118 272.856 142.51 221.628L155.43 214.266C239.928 166.115 345.017 226.714 345.668 323.967L345.896 357.978C346.368 428.344 415.786 477.461 482.298 454.49V454.49" stroke="white" stroke-width="0.653416"/>
<path d="M-65.68 99.3404L-65.4796 113.63C-64.0283 217.09 47.8693 281.071 137.768 229.843L150.687 222.481C235.186 174.33 340.274 234.929 340.926 332.182L341.154 366.193C341.625 436.559 411.043 485.676 477.556 462.705V462.705" stroke="white" stroke-width="0.653416"/>
<path d="M-70.423 107.555L-70.2225 121.845C-68.7713 225.305 43.1264 289.285 133.025 238.057L145.944 230.695C230.443 182.545 335.531 243.144 336.183 340.397L336.411 374.407C336.882 444.774 406.3 493.891 472.813 470.919V470.919" stroke="white" stroke-width="0.653416"/>
<path d="M-75.166 115.77L-74.9656 130.06C-73.5143 233.519 38.3834 297.5 128.282 246.272L141.201 238.91C225.7 190.759 330.788 251.359 331.44 348.611L331.668 382.622C332.139 452.988 401.557 502.105 468.07 479.134V479.134" stroke="white" stroke-width="0.653416"/>
<path d="M-79.7966 123.79L-79.5962 138.08C-78.1449 241.54 33.7528 305.521 123.651 254.293L136.571 246.931C221.069 198.78 326.158 259.379 326.809 356.632L327.037 390.643C327.509 461.009 396.927 510.126 463.439 487.155V487.155" stroke="white" stroke-width="0.653416"/>
<path d="M-84.4271 131.811L-84.2267 146.101C-82.7754 249.56 29.1223 313.541 119.021 262.313L131.94 254.951C216.439 206.8 321.527 267.4 322.179 364.652L322.407 398.663C322.878 469.029 392.296 518.147 458.809 495.175V495.175" stroke="white" stroke-width="0.653416"/>
<path d="M-89.0577 139.831L-88.8573 154.121C-87.406 257.581 24.4916 321.562 114.39 270.334L127.309 262.972C211.808 214.821 316.897 275.42 317.548 372.673L317.776 406.684C318.247 477.05 387.666 526.167 454.178 503.196V503.196" stroke="white" stroke-width="0.653416"/>
<path d="M-93.6882 147.852L-93.4878 162.142C-92.0365 265.601 19.8612 329.582 109.76 278.354L122.679 270.992C207.178 222.842 312.266 283.441 312.918 380.693L313.146 414.704C313.617 485.07 383.035 534.188 449.548 511.216V511.216" stroke="white" stroke-width="0.653416"/>
<path d="M-98.3188 155.871L-98.1184 170.161C-96.6671 273.62 15.2305 337.601 105.129 286.373L118.048 279.011C202.547 230.861 307.636 291.46 308.287 388.713L308.515 422.723C308.986 493.089 378.405 542.207 444.917 519.235V519.235" stroke="white" stroke-width="0.653416"/>
<path d="M-102.949 163.892L-102.749 178.182C-101.298 281.641 10.6 345.622 100.498 294.394L113.418 287.032C197.916 238.881 303.005 299.481 303.657 396.733L303.884 430.744C304.356 501.11 373.774 550.227 440.287 527.256V527.256" stroke="white" stroke-width="0.653416"/>
<path d="M-107.58 171.912L-107.379 186.202C-105.928 289.662 5.96943 353.642 95.8678 302.415L108.787 295.053C193.286 246.902 298.374 307.501 299.026 404.754L299.254 438.765C299.725 509.131 369.143 558.248 435.656 535.277V535.277" stroke="white" stroke-width="0.653416"/>
<path d="M-112.211 179.933L-112.01 194.223C-110.559 297.682 1.33881 361.663 91.2372 310.435L104.157 303.073C188.655 254.922 293.744 315.522 294.395 412.774L294.623 446.785C295.095 517.151 364.513 566.268 431.025 543.297V543.297" stroke="white" stroke-width="0.653416"/>
<path d="M-116.841 187.953L-116.641 202.243C-115.189 305.703 -3.29168 369.684 86.6067 318.456L99.5261 311.094C184.025 262.943 289.113 323.542 289.765 420.795L289.993 454.806C290.464 525.172 359.882 574.289 426.395 551.318V551.318" stroke="white" stroke-width="0.653416"/>
<path d="M-121.472 195.974L-121.271 210.264C-119.82 313.723 -7.92229 377.704 81.9761 326.476L94.8955 319.114C179.394 270.963 284.483 331.563 285.134 428.815L285.362 462.826C285.834 533.192 355.252 582.309 421.764 559.338V559.338" stroke="white" stroke-width="0.653416"/>
<path d="M-126.102 203.994L-125.902 218.284C-124.45 321.744 -12.5528 385.725 77.3456 334.497L90.265 327.135C174.764 278.984 279.852 339.583 280.504 436.836L280.732 470.847C281.203 541.213 350.621 590.33 417.134 567.359V567.359" stroke="white" stroke-width="0.653416"/>
<path d="M-130.733 212.015L-130.532 226.305C-129.081 329.764 -17.1834 393.745 72.715 342.517L85.6344 335.155C170.133 287.004 275.222 347.604 275.873 444.856L276.101 478.867C276.572 549.233 345.991 598.35 412.503 575.379V575.379" stroke="white" stroke-width="0.653416"/>
<path d="M-135.363 220.034L-135.163 234.324C-133.712 337.783 -21.8139 401.764 68.0845 350.536L81.0039 343.174C165.502 295.023 270.591 355.623 271.243 452.875L271.471 486.886C271.942 557.252 341.36 606.369 407.873 583.398V583.398" stroke="white" stroke-width="0.653416"/>
<path d="M-139.994 228.055L-139.793 242.344C-138.342 345.804 -26.4445 409.785 63.4539 358.557L76.3733 351.195C160.872 303.044 265.961 363.643 266.612 460.896L266.84 494.907C267.311 565.273 336.729 614.39 403.242 591.419V591.419" stroke="white" stroke-width="0.653416"/>
</svg>
